<svg xmlns="http://www.w3.org/2000/svg" width="1668" height="944" viewBox="0 0 1668 944">
  <defs>
    <linearGradient id="bg" x1="0" y1="0" x2="1" y2="1">
      <stop offset="0" stop-color="#061318"/>
      <stop offset="0.55" stop-color="#07191f"/>
      <stop offset="1" stop-color="#0a1117"/>
    </linearGradient>
    <linearGradient id="panel" x1="0" y1="0" x2="0" y2="1">
      <stop offset="0" stop-color="#101f27"/>
      <stop offset="1" stop-color="#0b171d"/>
    </linearGradient>
    <linearGradient id="select" x1="0" y1="0" x2="1" y2="0">
      <stop offset="0" stop-color="#123a54"/>
      <stop offset="1" stop-color="#0d2433"/>
    </linearGradient>
    <filter id="softShadow" x="-10%" y="-10%" width="120%" height="120%">
      <feDropShadow dx="0" dy="8" stdDeviation="12" flood-color="#000000" flood-opacity="0.28"/>
    </filter>
    <style>
      .bg { fill: url(#bg); }
      .top { fill: #0b151b; stroke: #1c313a; }
      .side { fill: #091820; stroke: #263b45; }
      .panel { fill: url(#panel); stroke: #29404b; stroke-width: 1; }
      .panel2 { fill: #0b1a21; stroke: #263b45; stroke-width: 1; }
      .muted { fill: #8fa3ad; font: 14px "Segoe UI", "Microsoft YaHei", sans-serif; }
      .text { fill: #d8e2e7; font: 15px "Segoe UI", "Microsoft YaHei", sans-serif; }
      .title { fill: #f1f6f8; font: 24px "Segoe UI Semibold", "Microsoft YaHei", sans-serif; }
      .nav { fill: #d8e2e7; font: 15px "Segoe UI", "Microsoft YaHei", sans-serif; }
      .small { fill: #9db0b9; font: 12px "Segoe UI", "Microsoft YaHei", sans-serif; }
      .value { fill: #f2f7fa; font: 30px "Segoe UI Semibold", "Microsoft YaHei", sans-serif; }
      .cyan { fill: #2ec7f0; }
      .green { fill: #62d26f; }
      .purple { fill: #8b6df6; }
      .orange { fill: #ff9f2f; }
      .grid { stroke: #26343a; stroke-width: 1; }
      .buttonAccent { fill: #123a4c; stroke: #2ec7f0; stroke-width: 1.2; }
      .buttonStop { fill: #2a1720; stroke: #ff5d73; stroke-width: 1.2; }
      .row { fill: #0c1a21; }
      .rowAlt { fill: #0f2028; }
      .rowSelect { fill: url(#select); stroke: #2475a4; stroke-width: 1; }
      .line { stroke: #2ec7f0; stroke-width: 2; fill: none; }
    </style>
  </defs>

  <rect class="bg" x="0" y="0" width="1668" height="944" rx="6"/>
  <rect class="top" x="0" y="0" width="1668" height="58"/>
  <text x="27" y="36" class="title" font-size="18">FRAME 代码执行跟踪</text>
  <text x="232" y="36" class="muted">串口 COM7  ·  115200  ·</text>
  <circle cx="399" cy="31" r="4" fill="#62d26f"/>
  <text x="412" y="36" class="green" font-family="Segoe UI, Microsoft YaHei" font-size="14">在线</text>
  <text x="1518" y="35" class="muted">—</text>
  <rect x="1582" y="18" width="11" height="11" stroke="#d8e2e7" fill="none"/>
  <path d="M1638 20l14 14m0-14l-14 14" stroke="#d8e2e7" stroke-width="1.5"/>

  <rect class="side" x="0" y="58" width="212" height="886"/>
  <g transform="translate(22 96)">
    <path d="M0 13l11-10 11 10v17H5V16h12" stroke="#d8e2e7" stroke-width="2" fill="none"/>
    <text x="38" y="24" class="nav">主页</text>
  </g>
  <g transform="translate(22 160)">
    <rect x="3" y="0" width="17" height="25" rx="3" stroke="#d8e2e7" stroke-width="2" fill="none"/>
    <path d="M8 8h7M8 14h7" stroke="#d8e2e7" stroke-width="1.5"/>
    <text x="38" y="20" class="nav">串口调试</text>
  </g>
  <g transform="translate(22 224)">
    <path d="M0 20h7v-8h8v8h8M4 7h15M4 13h15" stroke="#d8e2e7" stroke-width="2" fill="none"/>
    <text x="38" y="22" class="nav">参数读写</text>
  </g>
  <g transform="translate(22 288)">
    <path d="M0 16c6 0 5-12 11-12s5 24 12 24 5-12 12-12" stroke="#d8e2e7" stroke-width="2" fill="none"/>
    <text x="38" y="22" class="nav">参数波形</text>
  </g>
  <g transform="translate(8 394)">
    <rect x="0" y="0" width="196" height="54" rx="6" fill="#14303a"/>
    <rect x="0" y="0" width="4" height="54" fill="#2ec7f0" rx="2"/>
    <path d="M25 15v24M15 27h20M21 20l4-5 4 5M21 34l4 5 4-5" stroke="#2ec7f0" stroke-width="2" fill="none"/>
    <text x="54" y="34" class="nav">Trace</text>
  </g>
  <g transform="translate(22 488)">
    <path d="M0 5h21v26H0zM5 12h11M5 18h11M5 24h8" stroke="#d8e2e7" stroke-width="2" fill="none"/>
    <text x="38" y="24" class="nav">日志</text>
  </g>
  <g transform="translate(22 868)">
    <circle cx="11" cy="11" r="8" stroke="#d8e2e7" stroke-width="2" fill="none"/>
    <path d="M11 0v5M11 17v5M0 11h5M17 11h5" stroke="#d8e2e7" stroke-width="2"/>
    <text x="38" y="16" class="nav">设置</text>
  </g>

  <rect x="212" y="58" width="1088" height="886" fill="#08161b"/>
  <rect x="1300" y="58" width="368" height="886" fill="#0a151b" stroke="#263b45"/>

  <text x="238" y="101" class="title">代码执行跟踪</text>
  <text x="238" y="128" class="muted">只控制开始和停止；运行后下位机主动上报 time:uint32 和 line:uint16，时间单位 100 us</text>

  <rect x="238" y="158" width="1040" height="102" rx="7" class="panel2"/>
  <rect x="258" y="183" width="150" height="48" rx="5" class="buttonAccent"/>
  <path d="M286 195l18 12-18 12z" fill="#2ec7f0"/>
  <text x="318" y="214" class="text" font-family="Segoe UI Semibold, Microsoft YaHei">开始上报</text>
  <rect x="430" y="183" width="150" height="48" rx="5" class="buttonStop" opacity="0.34"/>
  <rect x="459" y="199" width="8" height="18" fill="#ff5d73"/>
  <rect x="474" y="199" width="8" height="18" fill="#ff5d73"/>
  <text x="505" y="214" class="muted">停止上报</text>
  <text x="618" y="202" class="muted">状态</text>
  <circle cx="664" cy="198" r="5" fill="#62d26f"/>
  <text x="680" y="203" class="green" font-family="Segoe UI Semibold, Microsoft YaHei" font-size="15">等待开始</text>
  <text x="618" y="230" class="small">开始后按钮切换为停止；停止后不再接收 Trace 上报。</text>
  <text x="1024" y="202" class="muted">Target 3</text>
  <text x="1110" y="202" class="muted">Dyn 0</text>
  <text x="1192" y="202" class="cyan" font-family="Segoe UI, Microsoft YaHei" font-size="14">0 records</text>

  <g filter="url(#softShadow)">
    <rect x="238" y="288" width="248" height="112" rx="5" class="panel"/>
    <text x="320" y="332" class="muted">事件总数</text>
    <text x="320" y="370" class="value">0</text>
    <circle cx="282" cy="343" r="18" stroke="#2ec7f0" stroke-width="4" fill="none"/>
    <path d="M282 332v13h11" stroke="#2ec7f0" stroke-width="3" fill="none"/>
    <rect x="500" y="288" width="248" height="112" rx="5" class="panel"/>
    <text x="582" y="332" class="muted">最后时间</text>
    <text x="582" y="370" class="value">-</text>
    <path d="M548 325a19 19 0 1 0 0 38a19 19 0 1 0 0-38M548 335v12l9 5" stroke="#8b6df6" stroke-width="4" fill="none"/>
    <rect x="762" y="288" width="248" height="112" rx="5" class="panel"/>
    <text x="844" y="332" class="muted">最后行号</text>
    <text x="844" y="370" class="value">-</text>
    <path d="M811 326h-31v39h31M789 337h27M789 349h21M789 361h25" stroke="#ff9f2f" stroke-width="3" fill="none"/>
    <rect x="1024" y="288" width="254" height="112" rx="5" class="panel"/>
    <text x="1107" y="332" class="muted">接收速率</text>
    <text x="1107" y="370" class="value">0/s</text>
    <path d="M1068 364l12-31l12 18l13-25l13 38" stroke="#62d26f" stroke-width="4" fill="none"/>
  </g>

  <rect x="238" y="428" width="1040" height="192" rx="5" class="panel2"/>
  <text x="258" y="459" class="text">时间线</text>
  <line x1="270" y1="582" x2="1248" y2="582" class="grid"/>
  <line x1="270" y1="482" x2="270" y2="582" class="grid"/>
  <line x1="466" y1="482" x2="466" y2="582" class="grid"/>
  <line x1="662" y1="482" x2="662" y2="582" class="grid"/>
  <line x1="858" y1="482" x2="858" y2="582" class="grid"/>
  <line x1="1054" y1="482" x2="1054" y2="582" class="grid"/>
  <line x1="1248" y1="482" x2="1248" y2="582" class="grid"/>
  <polyline class="line" points="270,552 298,536 326,560 354,524 382,570 410,534 438,552 466,506 494,562 522,544 550,516 578,574 606,540 634,548 662,498 690,562 718,552 746,524 774,572 802,539 830,546 858,512 886,568 914,536 942,552 970,494 998,566 1026,544 1054,532 1082,574 1110,540 1138,552 1166,514 1194,562 1222,539 1248,550"/>
  <text x="270" y="604" class="small">开始</text>
  <text x="1212" y="604" class="small">最新</text>

  <rect x="238" y="646" width="1040" height="264" rx="5" class="panel2"/>
  <text x="258" y="677" class="text">Trace Records</text>
  <rect x="258" y="694" width="1000" height="34" fill="#0a151b" stroke="#263b45"/>
  <text x="286" y="717" class="muted">#</text>
  <text x="430" y="717" class="muted">Time Tick</text>
  <text x="650" y="717" class="muted">Time (ms)</text>
  <text x="884" y="717" class="muted">Line</text>
  <text x="1082" y="717" class="muted">Delta</text>
  <rect x="258" y="728" width="1000" height="34" class="row"/>
  <text x="282" y="751" class="text">1</text>
  <text x="430" y="751" class="text">7,402</text>
  <text x="660" y="751" class="text">740.2</text>
  <text x="884" y="751" class="cyan" font-family="Segoe UI, Microsoft YaHei" font-size="15">1241</text>
  <text x="1082" y="751" class="text">-</text>
  <rect x="258" y="762" width="1000" height="34" class="rowAlt"/>
  <text x="282" y="785" class="text">2</text>
  <text x="430" y="785" class="text">7,410</text>
  <text x="660" y="785" class="text">741.0</text>
  <text x="884" y="785" class="cyan" font-family="Segoe UI, Microsoft YaHei" font-size="15">1245</text>
  <text x="1082" y="785" class="text">800 us</text>
  <rect x="258" y="796" width="1000" height="34" class="rowSelect"/>
  <text x="282" y="819" class="text">3</text>
  <text x="430" y="819" class="text">7,413</text>
  <text x="660" y="819" class="text">741.3</text>
  <text x="884" y="819" class="cyan" font-family="Segoe UI, Microsoft YaHei" font-size="15">1248</text>
  <text x="1082" y="819" class="text">300 us</text>
  <rect x="258" y="830" width="1000" height="34" class="row"/>
  <text x="282" y="853" class="text">4</text>
  <text x="430" y="853" class="text">7,421</text>
  <text x="660" y="853" class="text">742.1</text>
  <text x="884" y="853" class="cyan" font-family="Segoe UI, Microsoft YaHei" font-size="15">1257</text>
  <text x="1082" y="853" class="text">800 us</text>
  <rect x="258" y="864" width="1000" height="34" class="rowAlt"/>
  <text x="282" y="887" class="text">5</text>
  <text x="430" y="887" class="text">7,428</text>
  <text x="660" y="887" class="text">742.8</text>
  <text x="884" y="887" class="cyan" font-family="Segoe UI, Microsoft YaHei" font-size="15">1262</text>
  <text x="1082" y="887" class="text">700 us</text>

  <text x="1320" y="101" class="title" font-size="18">选中记录</text>
  <text x="1320" y="132" class="cyan" font-family="Segoe UI Semibold, Microsoft YaHei" font-size="18">Line 1248</text>
  <line x1="1320" y1="152" x2="1648" y2="152" stroke="#263b45"/>
  <text x="1320" y="190" class="muted">事件序号</text>
  <text x="1486" y="190" class="text">3</text>
  <text x="1320" y="226" class="muted">原始时间 tick</text>
  <text x="1486" y="226" class="text">7,413</text>
  <text x="1320" y="262" class="muted">换算时间</text>
  <text x="1486" y="262" class="text">741.3 ms</text>
  <text x="1320" y="298" class="muted">与上一条间隔</text>
  <text x="1486" y="298" class="text">300 us</text>
  <text x="1320" y="334" class="muted">代码行号</text>
  <text x="1486" y="334" class="cyan" font-family="Segoe UI Semibold, Microsoft YaHei" font-size="15">1248</text>

  <rect x="1320" y="382" width="328" height="142" rx="5" class="panel2"/>
  <text x="1340" y="414" class="text">接收说明</text>
  <text x="1340" y="448" class="muted">只有一个操作按钮。</text>
  <text x="1340" y="476" class="muted">开始后上位机等待下位机主动上报。</text>
  <text x="1340" y="504" class="muted">停止后关闭 Trace 上报。</text>

  <rect x="1320" y="552" width="328" height="150" rx="5" class="panel2"/>
  <text x="1340" y="584" class="text">数据包</text>
  <text x="1340" y="622" class="muted">time</text>
  <text x="1486" y="622" class="text">uint32_t</text>
  <text x="1340" y="658" class="muted">line</text>
  <text x="1486" y="658" class="text">uint16_t</text>
  <text x="1340" y="686" class="small">time 单位：100 us</text>
</svg>
