<svg xmlns="http://www.w3.org/2000/svg" width="1668" height="944" viewBox="0 0 1668 944"><rect x="0" y="0" width="1668" height="944" rx="0" fill="#07161b" stroke="#07161b" /><rect x="0" y="0" width="1668" height="58" rx="0" fill="#0a151b" stroke="#132a33" /><text x="26" y="36" fill="#d8e2e7" font-family="Segoe UI, Microsoft YaHei, Arial" font-size="18" font-weight="700" text-anchor="start">FRAME ???????</text><text x="230" y="36" fill="#8fa3ad" font-family="Segoe UI, Microsoft YaHei, Arial" font-size="15" font-weight="400" text-anchor="start">?? COM5  ?  115200  ?</text><text x="398" y="36" fill="#62d26f" font-family="Segoe UI, Microsoft YaHei, Arial" font-size="15" font-weight="700" text-anchor="start">??  ?</text><rect x="508" y="11" width="392" height="38" rx="6" fill="#0b151b" stroke="#263b45" /><text x="555" y="36" fill="#8fa3ad" font-family="Segoe UI, Microsoft YaHei, Arial" font-size="15" font-weight="400" text-anchor="start">????????????</text><rect x="1152" y="11" width="112" height="38" rx="6" fill="#101f27" stroke="#263b45" /><text x="1208" y="36" fill="#d8e2e7" font-family="Segoe UI, Microsoft YaHei, Arial" font-size="15" font-weight="600" text-anchor="middle">????</text><rect x="1274" y="11" width="162" height="38" rx="6" fill="#101f27" stroke="#263b45" /><text x="1355" y="36" fill="#d8e2e7" font-family="Segoe UI, Microsoft YaHei, Arial" font-size="15" font-weight="600" text-anchor="middle">???? 1s</text><rect x="1444" y="11" width="110" height="38" rx="6" fill="#101f27" stroke="#263b45" /><text x="1499" y="36" fill="#d8e2e7" font-family="Segoe UI, Microsoft YaHei, Arial" font-size="15" font-weight="600" text-anchor="middle">?? CSV</text><rect x="0" y="58" width="212" height="886" rx="0" fill="#061b22" stroke="#17313b" /><text x="58" y="100" fill="#c8d4da" font-family="Segoe UI, Microsoft YaHei, Arial" font-size="16" font-weight="500" text-anchor="start">??</text><circle cx="30" cy="94" r="10" fill="none" stroke="#8fa3ad" stroke-width="2"/><rect x="8" y="135" width="196" height="54" rx="7" fill="#18333d" stroke="#18333d" /><rect x="8" y="135" width="4" height="54" rx="2" fill="#2ec7f0" stroke="#2ec7f0" /><text x="58" y="165" fill="#d8e2e7" font-family="Segoe UI, Microsoft YaHei, Arial" font-size="16" font-weight="700" text-anchor="start">????</text><circle cx="30" cy="159" r="10" fill="none" stroke="#2ec7f0" stroke-width="2"/><rect x="8" y="200" width="196" height="54" rx="7" fill="#18333d" stroke="#18333d" /><rect x="8" y="200" width="4" height="54" rx="2" fill="#2ec7f0" stroke="#2ec7f0" /><text x="58" y="230" fill="#d8e2e7" font-family="Segoe UI, Microsoft YaHei, Arial" font-size="16" font-weight="700" text-anchor="start">????</text><circle cx="30" cy="224" r="10" fill="none" stroke="#2ec7f0" stroke-width="2"/><rect x="8" y="265" width="196" height="54" rx="7" fill="#18333d" stroke="#18333d" /><rect x="8" y="265" width="4" height="54" rx="2" fill="#2ec7f0" stroke="#2ec7f0" /><text x="58" y="295" fill="#d8e2e7" font-family="Segoe UI, Microsoft YaHei, Arial" font-size="16" font-weight="700" text-anchor="start">????</text><circle cx="30" cy="289" r="10" fill="none" stroke="#2ec7f0" stroke-width="2"/><rect x="8" y="330" width="196" height="54" rx="7" fill="#18333d" stroke="#18333d" /><rect x="8" y="330" width="4" height="54" rx="2" fill="#2ec7f0" stroke="#2ec7f0" /><text x="58" y="360" fill="#d8e2e7" font-family="Segoe UI, Microsoft YaHei, Arial" font-size="16" font-weight="700" text-anchor="start">????</text><circle cx="30" cy="354" r="10" fill="none" stroke="#2ec7f0" stroke-width="2"/><text x="58" y="425" fill="#c8d4da" font-family="Segoe UI, Microsoft YaHei, Arial" font-size="16" font-weight="500" text-anchor="start">Black Box</text><circle cx="30" cy="419" r="10" fill="none" stroke="#8fa3ad" stroke-width="2"/><rect x="8" y="460" width="196" height="54" rx="7" fill="#18333d" stroke="#18333d" /><rect x="8" y="460" width="4" height="54" rx="2" fill="#2ec7f0" stroke="#2ec7f0" /><text x="58" y="490" fill="#d8e2e7" font-family="Segoe UI, Microsoft YaHei, Arial" font-size="16" font-weight="700" text-anchor="start">????</text><circle cx="30" cy="484" r="10" fill="none" stroke="#2ec7f0" stroke-width="2"/><text x="58" y="555" fill="#c8d4da" font-family="Segoe UI, Microsoft YaHei, Arial" font-size="16" font-weight="500" text-anchor="start">Scope</text><circle cx="30" cy="549" r="10" fill="none" stroke="#8fa3ad" stroke-width="2"/><rect x="8" y="590" width="196" height="54" rx="7" fill="#18333d" stroke="#18333d" /><rect x="8" y="590" width="4" height="54" rx="2" fill="#2ec7f0" stroke="#2ec7f0" /><text x="58" y="620" fill="#d8e2e7" font-family="Segoe UI, Microsoft YaHei, Arial" font-size="16" font-weight="700" text-anchor="start">????</text><circle cx="30" cy="614" r="10" fill="none" stroke="#2ec7f0" stroke-width="2"/><circle cx="32" cy="873" r="10" fill="none" stroke="#8fa3ad" stroke-width="2"/><text x="58" y="878" fill="#d8e2e7" font-family="Segoe UI, Microsoft YaHei, Arial" font-size="16" font-weight="500" text-anchor="start">??</text><text x="238" y="102" fill="#d8e2e7" font-family="Segoe UI, Microsoft YaHei, Arial" font-size="28" font-weight="700" text-anchor="start">????</text><text x="238" y="130" fill="#8fa3ad" font-family="Segoe UI, Microsoft YaHei, Arial" font-size="15" font-weight="400" text-anchor="start">????? ? ????? ? ????</text><rect x="238" y="150" width="244" height="98" rx="8" fill="#0d1b22" stroke="#263b45" /><circle cx="282" cy="199" r="20" fill="none" stroke="#2ec7f0" stroke-width="4"/><text x="323" y="185" fill="#8fa3ad" font-family="Segoe UI, Microsoft YaHei, Arial" font-size="16" font-weight="500" text-anchor="start">?????</text><text x="323" y="226" fill="#d8e2e7" font-family="Segoe UI, Microsoft YaHei, Arial" font-size="32" font-weight="700" text-anchor="start">38.4%</text><rect x="501" y="150" width="244" height="98" rx="8" fill="#0d1b22" stroke="#263b45" /><circle cx="545" cy="199" r="20" fill="none" stroke="#8b6df6" stroke-width="4"/><text x="586" y="185" fill="#8fa3ad" font-family="Segoe UI, Microsoft YaHei, Arial" font-size="16" font-weight="500" text-anchor="start">????</text><text x="586" y="226" fill="#d8e2e7" font-family="Segoe UI, Microsoft YaHei, Arial" font-size="32" font-weight="700" text-anchor="start">62.7%</text><rect x="764" y="150" width="244" height="98" rx="8" fill="#0d1b22" stroke="#263b45" /><circle cx="808" cy="199" r="20" fill="none" stroke="#ff9f2f" stroke-width="4"/><text x="849" y="185" fill="#8fa3ad" font-family="Segoe UI, Microsoft YaHei, Arial" font-size="16" font-weight="500" text-anchor="start">?????</text><text x="849" y="226" fill="#d8e2e7" font-family="Segoe UI, Microsoft YaHei, Arial" font-size="32" font-weight="700" text-anchor="start">4.8%</text><rect x="1027" y="150" width="244" height="98" rx="8" fill="#0d1b22" stroke="#263b45" /><circle cx="1071" cy="199" r="20" fill="none" stroke="#ffbf3d" stroke-width="4"/><text x="1112" y="185" fill="#8fa3ad" font-family="Segoe UI, Microsoft YaHei, Arial" font-size="16" font-weight="500" text-anchor="start">??</text><text x="1112" y="226" fill="#d8e2e7" font-family="Segoe UI, Microsoft YaHei, Arial" font-size="32" font-weight="700" text-anchor="start">1s</text><rect x="236" y="272" width="1038" height="594" rx="8" fill="#0d1b22" stroke="#263b45" /><rect x="236" y="272" width="1038" height="46" rx="8" fill="#0a151b" stroke="#263b45" /><text x="275.0" y="301" fill="#8fa3ad" font-family="Segoe UI, Microsoft YaHei, Arial" font-size="15" font-weight="600" text-anchor="middle">??</text><line x1="314" y1="272" x2="314" y2="866" stroke="#263b45" stroke-width="1"/><text x="389.0" y="301" fill="#8fa3ad" font-family="Segoe UI, Microsoft YaHei, Arial" font-size="15" font-weight="600" text-anchor="middle">??</text><line x1="464" y1="272" x2="464" y2="866" stroke="#263b45" stroke-width="1"/><text x="523.0" y="301" fill="#8fa3ad" font-family="Segoe UI, Microsoft YaHei, Arial" font-size="15" font-weight="600" text-anchor="middle">??(us)</text><line x1="582" y1="272" x2="582" y2="866" stroke="#263b45" stroke-width="1"/><text x="641.0" y="301" fill="#8fa3ad" font-family="Segoe UI, Microsoft YaHei, Arial" font-size="15" font-weight="600" text-anchor="middle">??(us)</text><line x1="700" y1="272" x2="700" y2="866" stroke="#263b45" stroke-width="1"/><text x="820.0" y="301" fill="#8fa3ad" font-family="Segoe UI, Microsoft YaHei, Arial" font-size="15" font-weight="600" text-anchor="middle">????</text><line x1="940" y1="272" x2="940" y2="866" stroke="#263b45" stroke-width="1"/><text x="1040.0" y="301" fill="#8fa3ad" font-family="Segoe UI, Microsoft YaHei, Arial" font-size="15" font-weight="600" text-anchor="middle">????</text><line x1="1140" y1="272" x2="1140" y2="866" stroke="#263b45" stroke-width="1"/><text x="1200.0" y="301" fill="#8fa3ad" font-family="Segoe UI, Microsoft YaHei, Arial" font-size="15" font-weight="600" text-anchor="middle">??</text><line x1="1260" y1="272" x2="1260" y2="866" stroke="#263b45" stroke-width="1"/><rect x="236" y="318" width="1038" height="54" rx="0" fill="#0d1b22" stroke="#1f343d" /><rect x="248" y="331" width="70" height="28" rx="6" fill="#11232c" stroke="#2ec7f0" /><text x="283" y="351" fill="#2ec7f0" font-family="Segoe UI, Microsoft YaHei, Arial" font-size="14" font-weight="700" text-anchor="middle">TASK</text><text x="332" y="352" fill="#d8e2e7" font-family="Segoe UI, Microsoft YaHei, Arial" font-size="15" font-weight="400" text-anchor="start">main_loop</text><text x="523.0" y="352" fill="#d8e2e7" font-family="Segoe UI, Microsoft YaHei, Arial" font-size="15" font-weight="400" text-anchor="middle">1,842</text><text x="641.0" y="352" fill="#d8e2e7" font-family="Segoe UI, Microsoft YaHei, Arial" font-size="15" font-weight="400" text-anchor="middle">3,962</text><rect x="714" y="334" width="210" height="14" rx="2" fill="#263138" stroke="#263138" /><rect x="714" y="334" width="48.51" height="14" rx="2" fill="#2ec7f0" stroke="#2ec7f0" /><text x="714" y="361" fill="#2ec7f0" font-family="Segoe UI, Microsoft YaHei, Arial" font-size="13" font-weight="400" text-anchor="start">23.1% / peak 49.5%</text><rect x="954" y="334" width="170" height="14" rx="2" fill="#27283a" stroke="#27283a" /><rect x="954" y="334" width="84.15" height="14" rx="2" fill="#8b6df6" stroke="#8b6df6" /><text x="1124" y="361" fill="#d8e2e7" font-family="Segoe UI, Microsoft YaHei, Arial" font-size="13" font-weight="400" text-anchor="end">49.5%</text><circle cx="1192" cy="345" r="5" fill="#62d26f"/><text x="1210" y="351" fill="#8fa3ad" font-family="Segoe UI, Microsoft YaHei, Arial" font-size="14" font-weight="400" text-anchor="start">???</text><rect x="236" y="372" width="1038" height="54" rx="0" fill="#123552" stroke="#1f343d" /><rect x="248" y="385" width="70" height="28" rx="6" fill="#11232c" stroke="#2ec7f0" /><text x="283" y="405" fill="#2ec7f0" font-family="Segoe UI, Microsoft YaHei, Arial" font-size="14" font-weight="700" text-anchor="middle">TASK</text><text x="332" y="406" fill="#d8e2e7" font-family="Segoe UI, Microsoft YaHei, Arial" font-size="15" font-weight="400" text-anchor="start">comm_link</text><text x="523.0" y="406" fill="#d8e2e7" font-family="Segoe UI, Microsoft YaHei, Arial" font-size="15" font-weight="400" text-anchor="middle">248</text><text x="641.0" y="406" fill="#d8e2e7" font-family="Segoe UI, Microsoft YaHei, Arial" font-size="15" font-weight="400" text-anchor="middle">620</text><rect x="714" y="388" width="210" height="14" rx="2" fill="#263138" stroke="#263138" /><rect x="714" y="388" width="26.04" height="14" rx="2" fill="#2ec7f0" stroke="#2ec7f0" /><text x="714" y="415" fill="#2ec7f0" font-family="Segoe UI, Microsoft YaHei, Arial" font-size="13" font-weight="400" text-anchor="start">12.4% / peak 31.0%</text><rect x="954" y="388" width="170" height="14" rx="2" fill="#27283a" stroke="#27283a" /><rect x="954" y="388" width="52.7" height="14" rx="2" fill="#8b6df6" stroke="#8b6df6" /><text x="1124" y="415" fill="#d8e2e7" font-family="Segoe UI, Microsoft YaHei, Arial" font-size="13" font-weight="400" text-anchor="end">31.0%</text><circle cx="1192" cy="399" r="5" fill="#62d26f"/><text x="1210" y="405" fill="#8fa3ad" font-family="Segoe UI, Microsoft YaHei, Arial" font-size="14" font-weight="400" text-anchor="start">???</text><rect x="236" y="426" width="1038" height="54" rx="0" fill="#0d1b22" stroke="#1f343d" /><rect x="248" y="439" width="70" height="28" rx="6" fill="#11232c" stroke="#2ec7f0" /><text x="283" y="459" fill="#2ec7f0" font-family="Segoe UI, Microsoft YaHei, Arial" font-size="14" font-weight="700" text-anchor="middle">TASK</text><text x="332" y="460" fill="#d8e2e7" font-family="Segoe UI, Microsoft YaHei, Arial" font-size="15" font-weight="400" text-anchor="start">control_loop</text><text x="523.0" y="460" fill="#d8e2e7" font-family="Segoe UI, Microsoft YaHei, Arial" font-size="15" font-weight="400" text-anchor="middle">736</text><text x="641.0" y="460" fill="#d8e2e7" font-family="Segoe UI, Microsoft YaHei, Arial" font-size="15" font-weight="400" text-anchor="middle">1,420</text><rect x="714" y="442" width="210" height="14" rx="2" fill="#263138" stroke="#263138" /><rect x="714" y="442" width="18.06" height="14" rx="2" fill="#2ec7f0" stroke="#2ec7f0" /><text x="714" y="469" fill="#2ec7f0" font-family="Segoe UI, Microsoft YaHei, Arial" font-size="13" font-weight="400" text-anchor="start">8.6% / peak 17.5%</text><rect x="954" y="442" width="170" height="14" rx="2" fill="#27283a" stroke="#27283a" /><rect x="954" y="442" width="29.75" height="14" rx="2" fill="#8b6df6" stroke="#8b6df6" /><text x="1124" y="469" fill="#d8e2e7" font-family="Segoe UI, Microsoft YaHei, Arial" font-size="13" font-weight="400" text-anchor="end">17.5%</text><circle cx="1192" cy="453" r="5" fill="#62d26f"/><text x="1210" y="459" fill="#8fa3ad" font-family="Segoe UI, Microsoft YaHei, Arial" font-size="14" font-weight="400" text-anchor="start">???</text><rect x="236" y="480" width="1038" height="54" rx="0" fill="#0d1b22" stroke="#1f343d" /><rect x="248" y="493" width="70" height="28" rx="6" fill="#11232c" stroke="#ff9f2f" /><text x="283" y="513" fill="#ff9f2f" font-family="Segoe UI, Microsoft YaHei, Arial" font-size="14" font-weight="700" text-anchor="middle">INT</text><text x="332" y="514" fill="#d8e2e7" font-family="Segoe UI, Microsoft YaHei, Arial" font-size="15" font-weight="400" text-anchor="start">systick</text><text x="523.0" y="514" fill="#d8e2e7" font-family="Segoe UI, Microsoft YaHei, Arial" font-size="15" font-weight="400" text-anchor="middle">58</text><text x="641.0" y="514" fill="#d8e2e7" font-family="Segoe UI, Microsoft YaHei, Arial" font-size="15" font-weight="400" text-anchor="middle">148</text><rect x="714" y="496" width="210" height="14" rx="2" fill="#263138" stroke="#263138" /><rect x="714" y="496" width="2.1" height="14" rx="2" fill="#ff9f2f" stroke="#ff9f2f" /><text x="714" y="523" fill="#ff9f2f" font-family="Segoe UI, Microsoft YaHei, Arial" font-size="13" font-weight="400" text-anchor="start">1.0% / peak 3.7%</text><rect x="954" y="496" width="170" height="14" rx="2" fill="#27283a" stroke="#27283a" /><rect x="954" y="496" width="6.29" height="14" rx="2" fill="#8b6df6" stroke="#8b6df6" /><text x="1124" y="523" fill="#d8e2e7" font-family="Segoe UI, Microsoft YaHei, Arial" font-size="13" font-weight="400" text-anchor="end">3.7%</text><circle cx="1192" cy="507" r="5" fill="#62d26f"/><text x="1210" y="513" fill="#8fa3ad" font-family="Segoe UI, Microsoft YaHei, Arial" font-size="14" font-weight="400" text-anchor="start">???</text><rect x="236" y="534" width="1038" height="54" rx="0" fill="#0d1b22" stroke="#1f343d" /><rect x="248" y="547" width="70" height="28" rx="6" fill="#11232c" stroke="#ff9f2f" /><text x="283" y="567" fill="#ff9f2f" font-family="Segoe UI, Microsoft YaHei, Arial" font-size="14" font-weight="700" text-anchor="middle">INT</text><text x="332" y="568" fill="#d8e2e7" font-family="Segoe UI, Microsoft YaHei, Arial" font-size="15" font-weight="400" text-anchor="start">uart_rx</text><text x="523.0" y="568" fill="#d8e2e7" font-family="Segoe UI, Microsoft YaHei, Arial" font-size="15" font-weight="400" text-anchor="middle">82</text><text x="641.0" y="568" fill="#d8e2e7" font-family="Segoe UI, Microsoft YaHei, Arial" font-size="15" font-weight="400" text-anchor="middle">196</text><rect x="714" y="550" width="210" height="14" rx="2" fill="#263138" stroke="#263138" /><rect x="714" y="550" width="3.15" height="14" rx="2" fill="#ff9f2f" stroke="#ff9f2f" /><text x="714" y="577" fill="#ff9f2f" font-family="Segoe UI, Microsoft YaHei, Arial" font-size="13" font-weight="400" text-anchor="start">1.5% / peak 4.9%</text><rect x="954" y="550" width="170" height="14" rx="2" fill="#27283a" stroke="#27283a" /><rect x="954" y="550" width="8.330000000000002" height="14" rx="2" fill="#8b6df6" stroke="#8b6df6" /><text x="1124" y="577" fill="#d8e2e7" font-family="Segoe UI, Microsoft YaHei, Arial" font-size="13" font-weight="400" text-anchor="end">4.9%</text><circle cx="1192" cy="561" r="5" fill="#62d26f"/><text x="1210" y="567" fill="#8fa3ad" font-family="Segoe UI, Microsoft YaHei, Arial" font-size="14" font-weight="400" text-anchor="start">???</text><rect x="236" y="588" width="1038" height="54" rx="0" fill="#0d1b22" stroke="#1f343d" /><rect x="248" y="601" width="70" height="28" rx="6" fill="#11232c" stroke="#62d26f" /><text x="283" y="621" fill="#62d26f" font-family="Segoe UI, Microsoft YaHei, Arial" font-size="14" font-weight="700" text-anchor="middle">CODE</text><text x="332" y="622" fill="#d8e2e7" font-family="Segoe UI, Microsoft YaHei, Arial" font-size="15" font-weight="400" text-anchor="start">mppt_calc</text><text x="523.0" y="622" fill="#d8e2e7" font-family="Segoe UI, Microsoft YaHei, Arial" font-size="15" font-weight="400" text-anchor="middle">276</text><text x="641.0" y="622" fill="#d8e2e7" font-family="Segoe UI, Microsoft YaHei, Arial" font-size="15" font-weight="400" text-anchor="middle">688</text><rect x="714" y="604" width="210" height="14" rx="2" fill="#263138" stroke="#263138" /><rect x="714" y="604" width="5.67" height="14" rx="2" fill="#62d26f" stroke="#62d26f" /><text x="714" y="631" fill="#62d26f" font-family="Segoe UI, Microsoft YaHei, Arial" font-size="13" font-weight="400" text-anchor="start">2.7% / peak 10.2%</text><rect x="954" y="604" width="170" height="14" rx="2" fill="#27283a" stroke="#27283a" /><rect x="954" y="604" width="17.339999999999996" height="14" rx="2" fill="#8b6df6" stroke="#8b6df6" /><text x="1124" y="631" fill="#d8e2e7" font-family="Segoe UI, Microsoft YaHei, Arial" font-size="13" font-weight="400" text-anchor="end">10.2%</text><circle cx="1192" cy="615" r="5" fill="#62d26f"/><text x="1210" y="621" fill="#8fa3ad" font-family="Segoe UI, Microsoft YaHei, Arial" font-size="14" font-weight="400" text-anchor="start">???</text><rect x="236" y="642" width="1038" height="54" rx="0" fill="#0d1b22" stroke="#1f343d" /><rect x="248" y="655" width="70" height="28" rx="6" fill="#11232c" stroke="#62d26f" /><text x="283" y="675" fill="#62d26f" font-family="Segoe UI, Microsoft YaHei, Arial" font-size="14" font-weight="700" text-anchor="middle">CODE</text><text x="332" y="676" fill="#d8e2e7" font-family="Segoe UI, Microsoft YaHei, Arial" font-size="15" font-weight="400" text-anchor="start">pid_update</text><text x="523.0" y="676" fill="#d8e2e7" font-family="Segoe UI, Microsoft YaHei, Arial" font-size="15" font-weight="400" text-anchor="middle">184</text><text x="641.0" y="676" fill="#d8e2e7" font-family="Segoe UI, Microsoft YaHei, Arial" font-size="15" font-weight="400" text-anchor="middle">456</text><rect x="714" y="658" width="210" height="14" rx="2" fill="#263138" stroke="#263138" /><rect x="714" y="658" width="3.78" height="14" rx="2" fill="#62d26f" stroke="#62d26f" /><text x="714" y="685" fill="#62d26f" font-family="Segoe UI, Microsoft YaHei, Arial" font-size="13" font-weight="400" text-anchor="start">1.8% / peak 6.7%</text><rect x="954" y="658" width="170" height="14" rx="2" fill="#27283a" stroke="#27283a" /><rect x="954" y="658" width="11.39" height="14" rx="2" fill="#8b6df6" stroke="#8b6df6" /><text x="1124" y="685" fill="#d8e2e7" font-family="Segoe UI, Microsoft YaHei, Arial" font-size="13" font-weight="400" text-anchor="end">6.7%</text><circle cx="1192" cy="669" r="5" fill="#62d26f"/><text x="1210" y="675" fill="#8fa3ad" font-family="Segoe UI, Microsoft YaHei, Arial" font-size="14" font-weight="400" text-anchor="start">???</text><rect x="1300" y="58" width="368" height="886" rx="0" fill="#08141a" stroke="#263b45" /><text x="1322" y="96" fill="#d8e2e7" font-family="Segoe UI, Microsoft YaHei, Arial" font-size="17" font-weight="700" text-anchor="start">?????</text><text x="1322" y="128" fill="#2ec7f0" font-family="Segoe UI, Microsoft YaHei, Arial" font-size="20" font-weight="700" text-anchor="start">comm_link</text><line x1="1322" y1="150" x2="1646" y2="150" stroke="#263b45" stroke-width="1"/><text x="1322" y="190" fill="#d8e2e7" font-family="Segoe UI, Microsoft YaHei, Arial" font-size="17" font-weight="700" text-anchor="start">?????</text><text x="1322" y="218" fill="#8fa3ad" font-family="Segoe UI, Microsoft YaHei, Arial" font-size="14" font-weight="400" text-anchor="start">100% ???????</text><rect x="1322" y="232" width="284" height="12" rx="3" fill="#263138" stroke="#263138" /><rect x="1322" y="232" width="284.0" height="12" rx="3" fill="#8fa3ad" stroke="#8fa3ad" /><text x="1626" y="243" fill="#d8e2e7" font-family="Segoe UI, Microsoft YaHei, Arial" font-size="14" font-weight="400" text-anchor="end">100%</text><text x="1322" y="274" fill="#8fa3ad" font-family="Segoe UI, Microsoft YaHei, Arial" font-size="14" font-weight="400" text-anchor="start">????</text><rect x="1322" y="288" width="284" height="12" rx="3" fill="#263138" stroke="#263138" /><rect x="1322" y="288" width="88.04" height="12" rx="3" fill="#8b6df6" stroke="#8b6df6" /><text x="1626" y="299" fill="#d8e2e7" font-family="Segoe UI, Microsoft YaHei, Arial" font-size="14" font-weight="400" text-anchor="end">31.0%</text><text x="1322" y="330" fill="#8fa3ad" font-family="Segoe UI, Microsoft YaHei, Arial" font-size="14" font-weight="400" text-anchor="start">????</text><rect x="1322" y="344" width="284" height="12" rx="3" fill="#263138" stroke="#263138" /><rect x="1322" y="344" width="35.216" height="12" rx="3" fill="#2ec7f0" stroke="#2ec7f0" /><text x="1626" y="355" fill="#d8e2e7" font-family="Segoe UI, Microsoft YaHei, Arial" font-size="14" font-weight="400" text-anchor="end">12.4%</text><line x1="1322" y1="403" x2="1646" y2="403" stroke="#263b45" stroke-width="1"/><text x="1322" y="440" fill="#8fa3ad" font-family="Segoe UI, Microsoft YaHei, Arial" font-size="15" font-weight="400" text-anchor="start">??</text><text x="1484" y="440" fill="#d8e2e7" font-family="Segoe UI, Microsoft YaHei, Arial" font-size="15" font-weight="400" text-anchor="start">TASK</text><text x="1322" y="482" fill="#8fa3ad" font-family="Segoe UI, Microsoft YaHei, Arial" font-size="15" font-weight="400" text-anchor="start">????</text><text x="1484" y="482" fill="#d8e2e7" font-family="Segoe UI, Microsoft YaHei, Arial" font-size="15" font-weight="400" text-anchor="start">248 us</text><text x="1322" y="524" fill="#8fa3ad" font-family="Segoe UI, Microsoft YaHei, Arial" font-size="15" font-weight="400" text-anchor="start">????</text><text x="1484" y="524" fill="#d8e2e7" font-family="Segoe UI, Microsoft YaHei, Arial" font-size="15" font-weight="400" text-anchor="start">620 us</text><text x="1322" y="566" fill="#8fa3ad" font-family="Segoe UI, Microsoft YaHei, Arial" font-size="15" font-weight="400" text-anchor="start">????</text><text x="1484" y="566" fill="#2ec7f0" font-family="Segoe UI, Microsoft YaHei, Arial" font-size="15" font-weight="400" text-anchor="start">12.4%</text><text x="1322" y="608" fill="#8fa3ad" font-family="Segoe UI, Microsoft YaHei, Arial" font-size="15" font-weight="400" text-anchor="start">????</text><text x="1484" y="608" fill="#2ec7f0" font-family="Segoe UI, Microsoft YaHei, Arial" font-size="15" font-weight="400" text-anchor="start">31.0%</text><text x="1322" y="650" fill="#8fa3ad" font-family="Segoe UI, Microsoft YaHei, Arial" font-size="15" font-weight="400" text-anchor="start">????</text><text x="1484" y="650" fill="#d8e2e7" font-family="Segoe UI, Microsoft YaHei, Arial" font-size="15" font-weight="400" text-anchor="start">14:32:08</text><line x1="1322" y1="683" x2="1646" y2="683" stroke="#263b45" stroke-width="1"/><text x="1322" y="722" fill="#d8e2e7" font-family="Segoe UI, Microsoft YaHei, Arial" font-size="17" font-weight="700" text-anchor="start">??????60 ??</text><rect x="1354" y="748" width="286" height="166" rx="2" fill="#0a151b" stroke="#263b45" /><line x1="1354" y1="748" x2="1354" y2="914" stroke="#1c3038" stroke-width="1"/><line x1="1411" y1="748" x2="1411" y2="914" stroke="#1c3038" stroke-width="1"/><line x1="1468" y1="748" x2="1468" y2="914" stroke="#1c3038" stroke-width="1"/><line x1="1525" y1="748" x2="1525" y2="914" stroke="#1c3038" stroke-width="1"/><line x1="1582" y1="748" x2="1582" y2="914" stroke="#1c3038" stroke-width="1"/><line x1="1639" y1="748" x2="1639" y2="914" stroke="#1c3038" stroke-width="1"/><line x1="1354" y1="748.0" x2="1640" y2="748.0" stroke="#1c3038" stroke-width="1"/><line x1="1354" y1="789.5" x2="1640" y2="789.5" stroke="#1c3038" stroke-width="1"/><line x1="1354" y1="831.0" x2="1640" y2="831.0" stroke="#1c3038" stroke-width="1"/><line x1="1354" y1="872.5" x2="1640" y2="872.5" stroke="#1c3038" stroke-width="1"/><polyline points="1360.0,822.6 1378.0,833.4 1396.0,819.4 1414.0,841.0 1432.0,815.0 1450.0,829.1 1468.0,809.6 1486.0,836.6 1504.0,799.9 1522.0,826.9 1540.0,831.2 1558.0,820.4 1576.0,839.9 1594.0,814.0 1612.0,823.7 1630.0,818.3" fill="none" stroke="#2ec7f0" stroke-width="2"/></svg>